<?xml version="1.0" encoding="UTF-8"?>
<svg id="Layer_2" data-name="Layer 2" xmlns="http://www.w3.org/2000/svg" viewBox="0 0 890.39 732.44">
  <g id="Layer_1-2" data-name="Layer 1">
    <g>
      <path d="M398.06,0c9.58,0,18.01,3.65,25.31,10.93,7.28,7.29,10.93,15.73,10.93,25.31s-3.65,18.54-10.93,25.62c-7.29,7.09-15.73,10.62-25.31,10.62s-18.54-3.53-25.62-10.62c-7.09-7.08-10.62-15.62-10.62-25.62s3.53-18.01,10.62-25.31c7.08-7.28,15.62-10.93,25.62-10.93Z"/>
      <path d="M530.52,0c9.58,0,18.01,3.65,25.31,10.93,7.28,7.29,10.93,15.73,10.93,25.31s-3.65,18.54-10.93,25.62c-7.29,7.09-15.73,10.62-25.31,10.62s-18.54-3.53-25.62-10.62c-7.09-7.08-10.62-15.62-10.62-25.62s3.53-18.01,10.62-25.31c7.08-7.28,15.62-10.93,25.62-10.93Z"/>
      <g>
        <path d="M69.04,517.52c-8.07-3.12-2.54-349.1-4.06-365.22,51.63,79.77,213.57,330.01,262.43,405.52h14.37c.1-116.68-.19-262.95.11-380.04-5.71-7.7-10.11-12.4-16.05-17.6,4.08,77.55.35,214.98,1.57,292.04-19.18-29.55-196.66-303.06-220.57-339.91-33.24,2.63-73.8,2.14-106.85,0v12.5c41.39.06,51.85,12.11,50.61,53.74-1.49,19.48,3.87,330.26-3.74,338.97-7.16,21.37-23.54,22.4-46.86,24.68v12.5c37.22-2.88,84.6-2.65,121.84,0v-12.5c-25.73-2.53-44.2-2.16-52.8-24.68Z"/>
        <path d="M597.7,396.67c-38.01-54.84-79.33-123.26-62.38-184.73,14.14-51.21,54.83-80.77,104.72-82.45,8.91-5.73,18.66-11.45,29.3-17.18-41.49,3.22-93.6,3.3-135.12,0-4.03,5.73-7.73,11.45-11.1,17.18,85.64,7-74.66,69.58,54.09,257.23,18.79,31.01,39.63,62.1,57.2,93.2,50.47,80.66,26.72,152.84-52.06,193.68-103.22,62.93-285.12,22.1-270.45-122.4l-54.49-84.2c-40.22,62.09-63.97,116.59-18.64,168.38,53.16,54.89,144.54,97.63,219.34,97.05,78.39-3.46,223.62-65.17,228.96-157.17,4.05-54.61-55.06-128.45-89.37-178.58Z"/>
        <path d="M317.98,420.36v-41.75c-4.49,6.82-9.12,13.65-13.81,20.47l13.81,21.29Z"/>
        <path d="M263.48,129.49c48.24-.39,86.93,28.65,102.18,73.87,13.24,39.36,4.47,78.72-14.44,118.07v105.98c121.07-241.25-23.08-293.37,65.16-297.92-1.67-5.73-3.51-11.45-5.5-17.18-57.62,3.47-119.54,3.21-176.69,0,10.7,5.75,20.02,11.28,29.3,17.18Z"/>
        <path d="M535.48,552.82c21.95.04,49.56.2,71.86,1.87v-12.5c-89.75,1.49-44.79-78.42-25.79-130.47-2.9-4.64-5.79-9.28-8.64-13.94-19.54,38.97-35.78,134.12-84.28,144.41v12.5c15.78-2.02,28.82-1.74,46.86-1.87Z"/>
        <path d="M868.52,533.77c-17.72,2.85-163.7-408.96-173.7-424.58h-10c-.05.13-2.64,6.8-2.7,6.95,0,0-95.64,246.63-95.64,246.63,5.23,8.21,10.67,16.37,16.19,24.47h139.4c4.75,22.9,57.75,126.41,42.1,144.02-5.84,6.46-19.37,10.11-40.62,10.94v12.5c44.05-2.63,101.68-2.94,146.84,0v-12.5c-6.67-.41-13.96-3.22-21.87-8.43ZM595.78,374.74l71.8-186.52,69.81,186.52h-141.61Z"/>
      </g>
    </g>
  </g>
</svg>